<?xml version="1.0" encoding="utf-8"?>
<svg xmlns="http://www.w3.org/2000/svg" style="margin: auto; background: none; display: block; shape-rendering: auto;" width="280" height="250" preserveAspectRatio="xMidYMid">
<style type="text/css">
  text {
    text-anchor: middle; font-size: 80px; opacity: 0;
  }
</style>
<g style="transform-origin:140px 125px;transform:scale(1)">
<g transform="translate(140,125)">
  <g transform="translate(0,0)"><g class="path" style="transform: scale(0.91); transform-origin: -118.34px -5.64715px; animation: 1s linear -0.5775s infinite normal forwards running breath-ac07e224-9939-40ed-9948-57bfb7dab7cc;"><path d="M41.05 0L2.15 0L2.15-3.44L6.80-3.75L6.80-3.75Q7.66-3.83 8.07-4.38L8.07-4.38L8.07-4.38Q8.48-4.92 8.48-5.51L8.48-5.51L8.48-48.16L8.48-48.16Q8.48-48.75 8.07-49.30L8.07-49.30L8.07-49.30Q7.66-49.84 6.80-49.92L6.80-49.92L2.15-50.23L2.15-53.67L22.58-53.67L22.58-50.23L18.32-49.92L18.32-49.92Q17.46-49.84 17.01-49.30L17.01-49.30L17.01-49.30Q16.56-48.75 16.56-48.16L16.56-48.16L16.56-3.91L33.36-3.91L33.36-3.91Q33.91-3.91 34.47-4.32L34.47-4.32L34.47-4.32Q35.04-4.73 35.12-5.27L35.12-5.27L36.41-14.88L41.05-14.88L41.05 0" fill="#f05125" stroke="none" stroke-width="none" transform="translate(-139.93999671936035,21.187848932743073)" style="fill: rgb(240, 81, 37);"></path></g><g class="path" style="transform: scale(0.91); transform-origin: -75.72px 1.91285px; animation: 1s linear -0.495s infinite normal forwards running breath-ac07e224-9939-40ed-9948-57bfb7dab7cc;"><path d="M83.24-19.22L83.24-19.22L83.24-19.22Q83.24-14.96 81.89-11.27L81.89-11.27L81.89-11.27Q80.55-7.58 78.07-4.86L78.07-4.86L78.07-4.86Q75.59-2.15 72.05-0.59L72.05-0.59L72.05-0.59Q68.52 0.98 64.14 0.98L64.14 0.98L64.14 0.98Q59.77 0.98 56.25-0.57L56.25-0.57L56.25-0.57Q52.73-2.11 50.27-4.80L50.27-4.80L50.27-4.80Q47.81-7.50 46.50-11.19L46.50-11.19L46.50-11.19Q45.20-14.88 45.20-19.22L45.20-19.22L45.20-19.22Q45.20-23.48 46.52-27.19L46.52-27.19L46.52-27.19Q47.85-30.90 50.35-33.65L50.35-33.65L50.35-33.65Q52.85-36.41 56.39-37.97L56.39-37.97L56.39-37.97Q59.92-39.53 64.38-39.53L64.38-39.53L64.38-39.53Q68.83-39.53 72.34-37.93L72.34-37.93L72.34-37.93Q75.86-36.33 78.28-33.57L78.28-33.57L78.28-33.57Q80.70-30.82 81.97-27.13L81.97-27.13L81.97-27.13Q83.24-23.44 83.24-19.22zM74.92-19.30L74.92-19.30L74.92-19.30Q74.92-22.58 74.28-25.59L74.28-25.59L74.28-25.59Q73.63-28.59 72.30-30.90L72.30-30.90L72.30-30.90Q70.98-33.20 68.98-34.57L68.98-34.57L68.98-34.57Q66.99-35.94 64.30-35.94L64.30-35.94L64.30-35.94Q61.52-35.94 59.49-34.57L59.49-34.57L59.49-34.57Q57.46-33.20 56.15-30.90L56.15-30.90L56.15-30.90Q54.84-28.59 54.22-25.59L54.22-25.59L54.22-25.59Q53.59-22.58 53.59-19.30L53.59-19.30L53.59-19.30Q53.59-16.05 54.24-13.05L54.24-13.05L54.24-13.05Q54.88-10.04 56.21-7.73L56.21-7.73L56.21-7.73Q57.54-5.43 59.53-4.04L59.53-4.04L59.53-4.04Q61.52-2.66 64.22-2.66L64.22-2.66L64.22-2.66Q66.95-2.66 68.98-4.02L68.98-4.02L68.98-4.02Q71.02-5.39 72.32-7.70L72.32-7.70L72.32-7.70Q73.63-10 74.28-13.01L74.28-13.01L74.28-13.01Q74.92-16.02 74.92-19.30" fill="#f05125" stroke="none" stroke-width="none" transform="translate(-139.93999671936035,21.187848932743073)" style="fill: rgb(253, 184, 19);"></path></g><g class="path" style="transform: scale(0.91); transform-origin: -32.91px 1.91285px; animation: 1s linear -0.4125s infinite normal forwards running breath-ac07e224-9939-40ed-9948-57bfb7dab7cc;"><path d="M125.35 0L113.52 0L112.46-4.73L112.46-4.73Q110.35-3.13 108.13-1.88L108.13-1.88L108.13-1.88Q107.15-1.33 106.05-0.82L106.05-0.82L106.05-0.82Q104.96-0.31 103.81 0.10L103.81 0.10L103.81 0.10Q102.66 0.51 101.46 0.74L101.46 0.74L101.46 0.74Q100.27 0.98 99.10 0.98L99.10 0.98L99.10 0.98Q96.91 0.98 95.02 0.23L95.02 0.23L95.02 0.23Q93.13-0.51 91.72-1.91L91.72-1.91L91.72-1.91Q90.31-3.32 89.51-5.31L89.51-5.31L89.51-5.31Q88.71-7.30 88.71-9.84L88.71-9.84L88.71-9.84Q88.71-11.33 89.00-12.66L89.00-12.66L89.00-12.66Q89.30-13.98 90.20-15.23L90.20-15.23L90.20-15.23Q91.09-16.48 92.71-17.64L92.71-17.64L92.71-17.64Q94.34-18.79 96.97-19.92L96.97-19.92L96.97-19.92Q99.61-21.05 103.42-22.17L103.42-22.17L103.42-22.17Q107.23-23.28 112.46-24.41L112.46-24.41L112.46-27.85L112.46-27.85Q112.46-31.88 110.66-33.81L110.66-33.81L110.66-33.81Q108.87-35.74 105-35.74L105-35.74L105-35.74Q102.89-35.74 101.41-35.35L101.41-35.35L101.41-35.35Q99.92-34.96 99.34-34.73L99.34-34.73L99.34-27.77L93.52-27.77L93.52-27.77Q92.97-27.77 92.44-27.85L92.44-27.85L92.44-27.85Q91.91-27.93 91.48-28.18L91.48-28.18L91.48-28.18Q91.05-28.44 90.80-28.89L90.80-28.89L90.80-28.89Q90.55-29.34 90.55-30.08L90.55-30.08L90.55-30.08Q90.55-32.54 92.03-34.32L92.03-34.32L92.03-34.32Q93.52-36.09 95.90-37.27L95.90-37.27L95.90-37.27Q98.28-38.44 101.25-38.98L101.25-38.98L101.25-38.98Q104.22-39.53 107.19-39.53L107.19-39.53L107.19-39.53Q110.90-39.53 113.34-38.63L113.34-38.63L113.34-38.63Q115.78-37.73 117.21-36.13L117.21-36.13L117.21-36.13Q118.63-34.53 119.22-32.34L119.22-32.34L119.22-32.34Q119.80-30.16 119.80-27.54L119.80-27.54L119.80-5.12L119.80-5.12Q119.80-4.38 120.29-3.91L120.29-3.91L120.29-3.91Q120.78-3.44 121.48-3.36L121.48-3.36L125.35-3.13L125.35 0zM112.46-7.54L112.46-21.37L112.46-21.37Q107.07-20 103.91-18.67L103.91-18.67L103.91-18.67Q100.74-17.34 99.12-16.00L99.12-16.00L99.12-16.00Q97.50-14.65 97.05-13.26L97.05-13.26L97.05-13.26Q96.60-11.88 96.60-10.39L96.60-10.39L96.60-10.39Q96.60-9.14 97.01-7.95L97.01-7.95L97.01-7.95Q97.42-6.76 98.18-5.82L98.18-5.82L98.18-5.82Q98.95-4.88 100.06-4.32L100.06-4.32L100.06-4.32Q101.17-3.75 102.62-3.75L102.62-3.75L102.62-3.75Q104.22-3.75 105.96-4.34L105.96-4.34L105.96-4.34Q107.70-4.92 109.14-5.63L109.14-5.63L109.14-5.63Q110.82-6.45 112.46-7.54L112.46-7.54" fill="#f05125" stroke="none" stroke-width="none" transform="translate(-139.93999671936035,21.187848932743073)" style="fill: rgb(127, 187, 66);"></path></g><g class="path" style="transform: scale(0.91); transform-origin: 9.63px -7.79715px; animation: 1s linear -0.33s infinite normal forwards running breath-ac07e224-9939-40ed-9948-57bfb7dab7cc;"><path d="M169.73 0L157.15 0L157.15-4.26L157.15-4.26Q155.78-3.20 154.32-2.25L154.32-2.25L154.32-2.25Q152.85-1.29 151.31-0.59L151.31-0.59L151.31-0.59Q149.77 0.12 148.14 0.55L148.14 0.55L148.14 0.55Q146.52 0.98 144.77 0.98L144.77 0.98L144.77 0.98Q140.74 0.98 137.83-0.76L137.83-0.76L137.83-0.76Q134.92-2.50 133.05-5.25L133.05-5.25L133.05-5.25Q131.17-8.01 130.29-11.43L130.29-11.43L130.29-11.43Q129.41-14.84 129.41-18.24L129.41-18.24L129.41-18.24Q129.41-22.30 130.66-26.15L130.66-26.15L130.66-26.15Q131.91-30 134.45-32.97L134.45-32.97L134.45-32.97Q136.99-35.94 140.82-37.73L140.82-37.73L140.82-37.73Q144.65-39.53 149.80-39.53L149.80-39.53L149.80-39.53Q150.74-39.53 151.84-39.41L151.84-39.41L151.84-39.41Q152.93-39.30 153.96-39.16L153.96-39.16L153.96-39.16Q155-39.02 155.84-38.85L155.84-38.85L155.84-38.85Q156.68-38.67 157.15-38.55L157.15-38.55L157.15-53.20L151.09-53.20L151.09-55.86L161.41-58.95L164.61-58.95L164.61-5.12L164.61-5.12Q164.61-4.38 165.08-3.91L165.08-3.91L165.08-3.91Q165.55-3.44 166.29-3.36L166.29-3.36L169.73-3.13L169.73 0zM157.15-7.27L157.15-34.49L157.15-34.49Q156.64-34.65 155.84-34.86L155.84-34.86L155.84-34.86Q155.04-35.08 154.12-35.25L154.12-35.25L154.12-35.25Q153.20-35.43 152.21-35.55L152.21-35.55L152.21-35.55Q151.21-35.66 150.35-35.66L150.35-35.66L150.35-35.66Q147.38-35.66 144.96-34.51L144.96-34.51L144.96-34.51Q142.54-33.36 140.84-31.27L140.84-31.27L140.84-31.27Q139.14-29.18 138.22-26.21L138.22-26.21L138.22-26.21Q137.30-23.24 137.30-19.61L137.30-19.61L137.30-19.61Q137.30-16.33 138.09-13.57L138.09-13.57L138.09-13.57Q138.87-10.82 140.35-8.79L140.35-8.79L140.35-8.79Q141.84-6.76 143.98-5.63L143.98-5.63L143.98-5.63Q146.13-4.49 148.91-4.49L148.91-4.49L148.91-4.49Q150.12-4.49 151.25-4.75L151.25-4.75L151.25-4.75Q152.38-5 153.44-5.41L153.44-5.41L153.44-5.41Q154.49-5.82 155.43-6.31L155.43-6.31L155.43-6.31Q156.37-6.80 157.15-7.27L157.15-7.27" fill="#f05125" stroke="none" stroke-width="none" transform="translate(-139.93999671936035,21.187848932743073)" style="fill: rgb(50, 160, 218);"></path></g><g class="path" style="transform: scale(0.91); transform-origin: 44.375px -30.5321px; animation: 1s linear -0.2475s infinite normal forwards running breath-ac07e224-9939-40ed-9948-57bfb7dab7cc;"><path d="M189.22-51.76L189.22-51.76L189.22-51.76Q189.22-50.74 188.85-49.82L188.85-49.82L188.85-49.82Q188.48-48.91 187.81-48.24L187.81-48.24L187.81-48.24Q187.15-47.58 186.27-47.19L186.27-47.19L186.27-47.19Q185.39-46.80 184.38-46.80L184.38-46.80L184.38-46.80Q183.36-46.80 182.44-47.19L182.44-47.19L182.44-47.19Q181.52-47.58 180.86-48.24L180.86-48.24L180.86-48.24Q180.20-48.91 179.80-49.82L179.80-49.82L179.80-49.82Q179.41-50.74 179.41-51.76L179.41-51.76L179.41-51.76Q179.41-52.77 179.80-53.67L179.80-53.67L179.80-53.67Q180.20-54.57 180.86-55.23L180.86-55.23L180.86-55.23Q181.52-55.90 182.44-56.27L182.44-56.27L182.44-56.27Q183.36-56.64 184.38-56.64L184.38-56.64L184.38-56.64Q185.39-56.64 186.27-56.27L186.27-56.27L186.27-56.27Q187.15-55.90 187.81-55.23L187.81-55.23L187.81-55.23Q188.48-54.57 188.85-53.67L188.85-53.67L188.85-53.67Q189.22-52.77 189.22-51.76" fill="#f05125" stroke="none" stroke-width="none" transform="translate(-139.93999671936035,21.187848932743073)" style="fill: rgb(240, 81, 37);"></path></g><g class="path" style="transform: scale(0.91); transform-origin: 43.985px 1.42285px; animation: 1s linear -0.165s infinite normal forwards running breath-ac07e224-9939-40ed-9948-57bfb7dab7cc;"><path d="M193.32 0L174.53 0L174.53-3.13L178.44-3.36L178.44-3.36Q179.18-3.44 179.65-3.91L179.65-3.91L179.65-3.91Q180.12-4.38 180.12-5.12L180.12-5.12L180.12-33.67L174.61-33.67L174.61-36.48L184.38-39.53L187.54-39.53L187.54-5.12L187.54-5.12Q187.54-4.38 188.03-3.91L188.03-3.91L188.03-3.91Q188.52-3.44 189.22-3.36L189.22-3.36L193.32-3.13L193.32 0" fill="#f05125" stroke="none" stroke-width="none" transform="translate(-139.93999671936035,21.187848932743073)" style="fill: rgb(253, 184, 19);"></path></g><g class="path" style="transform: scale(0.91); transform-origin: 78.79px 1.42285px; animation: 1s linear -0.0825s infinite normal forwards running breath-ac07e224-9939-40ed-9948-57bfb7dab7cc;"><path d="M239.80 0L222.15 0L222.15-3.13L225.51-3.36L225.51-3.36Q226.21-3.44 226.70-3.91L226.70-3.91L226.70-3.91Q227.19-4.38 227.19-5.12L227.19-5.12L227.19-25.94L227.19-25.94Q227.19-29.73 225.43-31.70L225.43-31.70L225.43-31.70Q223.67-33.67 219.49-33.67L219.49-33.67L219.49-33.67Q217.19-33.67 214.96-33.03L214.96-33.03L214.96-33.03Q212.73-32.38 210.70-31.37L210.70-31.37L210.70-5.12L210.70-5.12Q210.70-4.38 211.17-3.91L211.17-3.91L211.17-3.91Q211.64-3.44 212.38-3.36L212.38-3.36L215.74-3.13L215.74 0L197.66 0L197.66-3.13L201.56-3.36L201.56-3.36Q202.30-3.44 202.77-3.91L202.77-3.91L202.77-3.91Q203.24-4.38 203.24-5.12L203.24-5.12L203.24-32.89L197.66-32.89L197.66-35.51L207.42-38.55L210.70-38.55L210.70-34.57L210.70-34.57Q212.38-35.51 214.12-36.41L214.12-36.41L214.12-36.41Q215.86-37.30 217.58-38.01L217.58-38.01L217.58-38.01Q219.30-38.71 220.90-39.12L220.90-39.12L220.90-39.12Q222.50-39.53 223.91-39.53L223.91-39.53L223.91-39.53Q229.14-39.53 231.88-36.29L231.88-36.29L231.88-36.29Q234.61-33.05 234.61-27.19L234.61-27.19L234.61-5.12L234.61-5.12Q234.61-4.38 235.10-3.91L235.10-3.91L235.10-3.91Q235.59-3.44 236.29-3.36L236.29-3.36L239.80-3.13L239.80 0" fill="#f05125" stroke="none" stroke-width="none" transform="translate(-139.93999671936035,21.187848932743073)" style="fill: rgb(127, 187, 66);"></path></g><g class="path" style="transform: scale(0.91); transform-origin: 123.145px 10.5828px; animation: 1s linear 0s infinite normal forwards running breath-ac07e224-9939-40ed-9948-57bfb7dab7cc;"><path d="M282.03-33.20L274.06-33.20L274.06-33.20Q274.96-31.76 275.59-30.06L275.59-30.06L275.59-30.06Q276.21-28.36 276.21-26.02L276.21-26.02L276.21-26.02Q276.21-23.01 274.92-20.66L274.92-20.66L274.92-20.66Q273.63-18.32 271.46-16.68L271.46-16.68L271.46-16.68Q269.30-15.04 266.46-14.18L266.46-14.18L266.46-14.18Q263.63-13.32 260.51-13.32L260.51-13.32L259.73-13.32L259.73-13.32Q259.34-13.32 258.95-13.36L258.95-13.36L258.95-13.36Q258.44-12.54 258.26-11.60L258.26-11.60L258.26-11.60Q258.09-10.66 258.09-9.84L258.09-9.84L258.09-9.84Q258.09-9.10 258.16-8.59L258.16-8.59L258.16-8.59Q258.24-8.09 258.28-8.01L258.28-8.01L259.41-7.89L259.41-7.89Q261.29-7.70 263.54-7.44L263.54-7.44L263.54-7.44Q265.78-7.19 268.07-6.70L268.07-6.70L268.07-6.70Q270.35-6.21 272.50-5.45L272.50-5.45L272.50-5.45Q274.65-4.69 276.31-3.54L276.31-3.54L276.31-3.54Q277.97-2.38 278.96-0.72L278.96-0.72L278.96-0.72Q279.96 0.94 279.96 3.20L279.96 3.20L279.96 3.20Q279.96 6.05 278.34 8.77L278.34 8.77L278.34 8.77Q276.72 11.48 273.91 13.61L273.91 13.61L273.91 13.61Q271.09 15.74 267.30 17.03L267.30 17.03L267.30 17.03Q263.52 18.32 259.18 18.32L259.18 18.32L259.18 18.32Q255.59 18.32 252.79 17.46L252.79 17.46L252.79 17.46Q250 16.60 248.09 15.08L248.09 15.08L248.09 15.08Q246.17 13.55 245.16 11.46L245.16 11.46L245.16 11.46Q244.14 9.38 244.14 6.95L244.14 6.95L244.14 6.95Q244.14 5.20 244.65 3.61L244.65 3.61L244.65 3.61Q245.16 2.03 246.21 0.76L246.21 0.76L246.21 0.76Q247.27-0.51 248.85-1.43L248.85-1.43L248.85-1.43Q250.43-2.34 252.62-2.73L252.62-2.73L252.62-2.73Q252.38-3.36 252.23-3.77L252.23-3.77L252.23-3.77Q252.07-4.18 251.97-4.55L251.97-4.55L251.97-4.55Q251.88-4.92 251.84-5.33L251.84-5.33L251.84-5.33Q251.80-5.74 251.80-6.41L251.80-6.41L251.80-6.41Q251.80-7.97 252.75-9.86L252.75-9.86L252.75-9.86Q253.71-11.76 255.82-13.91L255.82-13.91L255.82-13.91Q253.83-14.38 252.03-15.39L252.03-15.39L252.03-15.39Q250.23-16.41 248.87-17.95L248.87-17.95L248.87-17.95Q247.50-19.49 246.70-21.50L246.70-21.50L246.70-21.50Q245.90-23.52 245.90-25.94L245.90-25.94L245.90-25.94Q245.90-29.10 247.07-31.62L247.07-31.62L247.07-31.62Q248.24-34.14 250.35-35.90L250.35-35.90L250.35-35.90Q252.46-37.66 255.41-38.59L255.41-38.59L255.41-38.59Q258.36-39.53 261.95-39.53L261.95-39.53L261.95-39.53Q263.36-39.53 264.71-39.30L264.71-39.30L264.71-39.30Q266.05-39.06 267.25-38.69L267.25-38.69L267.25-38.69Q268.44-38.32 269.45-37.89L269.45-37.89L269.45-37.89Q270.47-37.46 271.25-37.11L271.25-37.11L282.03-37.11L282.03-33.20zM273.09 5.35L273.09 5.35L273.09 5.35Q273.09 3.71 272.27 2.56L272.27 2.56L272.27 2.56Q271.45 1.41 270.10 0.66L270.10 0.66L270.10 0.66Q268.75-0.08 267.05-0.53L267.05-0.53L267.05-0.53Q265.35-0.98 263.61-1.27L263.61-1.27L263.61-1.27Q261.88-1.56 260.23-1.74L260.23-1.74L260.23-1.74Q258.59-1.91 257.42-2.15L257.42-2.15L257.42-2.15Q255.66-1.52 254.49-0.64L254.49-0.64L254.49-0.64Q253.32 0.23 252.62 1.25L252.62 1.25L252.62 1.25Q251.91 2.27 251.62 3.32L251.62 3.32L251.62 3.32Q251.33 4.38 251.33 5.35L251.33 5.35L251.33 5.35Q251.33 6.80 251.95 8.44L251.95 8.44L251.95 8.44Q252.58 10.08 253.87 11.45L253.87 11.45L253.87 11.45Q255.16 12.81 257.13 13.73L257.13 13.73L257.13 13.73Q259.10 14.65 261.80 14.65L261.80 14.65L261.80 14.65Q264.65 14.65 266.78 13.73L266.78 13.73L266.78 13.73Q268.91 12.81 270.31 11.45L270.31 11.45L270.31 11.45Q271.72 10.08 272.40 8.44L272.40 8.44L272.40 8.44Q273.09 6.80 273.09 5.35zM268.59-26.48L268.59-26.48L268.59-26.48Q268.59-28.36 268.11-30.14L268.11-30.14L268.11-30.14Q267.62-31.91 266.68-33.26L266.68-33.26L266.68-33.26Q265.74-34.61 264.36-35.43L264.36-35.43L264.36-35.43Q262.97-36.25 261.17-36.25L261.17-36.25L261.17-36.25Q259.49-36.25 258.09-35.59L258.09-35.59L258.09-35.59Q256.68-34.92 255.68-33.65L255.68-33.65L255.68-33.65Q254.69-32.38 254.12-30.55L254.12-30.55L254.12-30.55Q253.55-28.71 253.55-26.41L253.55-26.41L253.55-26.41Q253.55-24.41 254.04-22.64L254.04-22.64L254.04-22.64Q254.53-20.86 255.49-19.53L255.49-19.53L255.49-19.53Q256.45-18.20 257.87-17.42L257.87-17.42L257.87-17.42Q259.30-16.64 261.17-16.64L261.17-16.64L261.17-16.64Q262.97-16.64 264.36-17.42L264.36-17.42L264.36-17.42Q265.74-18.20 266.68-19.53L266.68-19.53L266.68-19.53Q267.62-20.86 268.11-22.66L268.11-22.66L268.11-22.66Q268.59-24.45 268.59-26.48" fill="#f05125" stroke="none" stroke-width="none" transform="translate(-139.93999671936035,21.187848932743073)" style="fill: rgb(50, 160, 218);"></path></g></g>
</g>
</g>
<style id="breath-ac07e224-9939-40ed-9948-57bfb7dab7cc" data-anikit="">@keyframes breath-ac07e224-9939-40ed-9948-57bfb7dab7cc
{
  0% {
    animation-timing-function: cubic-bezier(0.9647,0.2413,-0.0705,0.7911);
    transform: scale(0.9099999999999999);
  }
  51% {
    animation-timing-function: cubic-bezier(0.9226,0.2631,-0.0308,0.7628);
    transform: scale(1.02994);
  }
  100% {
    transform: scale(0.9099999999999999);
  }
}</style></svg>